<svg width="30" height="28" viewBox="0 0 30 28" fill="none" xmlns="http://www.w3.org/2000/svg">
<path d="M10.0343 22.5456C10.0343 22.6614 9.89516 22.754 9.71976 22.754C9.52016 22.7714 9.38105 22.6787 9.38105 22.5456C9.38105 22.4298 9.52016 22.3371 9.69556 22.3371C9.87702 22.3198 10.0343 22.4124 10.0343 22.5456ZM8.15323 22.285C8.11089 22.4008 8.23186 22.534 8.41331 22.5687C8.57056 22.6266 8.75202 22.5687 8.78831 22.4529C8.8246 22.3371 8.70968 22.204 8.52823 22.1518C8.37097 22.1113 8.19556 22.1692 8.15323 22.285ZM10.8266 22.1866C10.6512 22.2271 10.5302 22.3371 10.5484 22.4703C10.5665 22.5861 10.7238 22.6614 10.9052 22.6208C11.0806 22.5803 11.2016 22.4703 11.1835 22.3545C11.1653 22.2445 11.002 22.1692 10.8266 22.1866ZM14.8065 0C6.41734 0 0 6.09668 0 14.1272C0 20.5481 4.22177 26.0426 10.252 27.9764C11.0262 28.1096 11.2984 27.6522 11.2984 27.2758C11.2984 26.9169 11.2802 24.9368 11.2802 23.7209C11.2802 23.7209 7.04637 24.5894 6.15726 21.9955C6.15726 21.9955 5.46774 20.3107 4.47581 19.8764C4.47581 19.8764 3.09073 18.9674 4.57258 18.9848C4.57258 18.9848 6.07863 19.1006 6.90726 20.4786C8.23185 22.7135 10.4516 22.0708 11.3165 21.6887C11.4556 20.7623 11.8488 20.1196 12.2843 19.7375C8.90323 19.3785 5.49194 18.9096 5.49194 13.3397C5.49194 11.7475 5.95161 10.9485 6.91935 9.92954C6.7621 9.5532 6.24798 8.00153 7.07661 5.99825C8.34073 5.62191 11.25 7.5615 11.25 7.5615C12.4597 7.23728 13.7601 7.06937 15.0484 7.06937C16.3367 7.06937 17.6371 7.23728 18.8468 7.5615C18.8468 7.5615 21.756 5.61613 23.0202 5.99825C23.8488 8.00732 23.3347 9.5532 23.1774 9.92954C24.1452 10.9543 24.7379 11.7533 24.7379 13.3397C24.7379 18.9269 21.1754 19.3727 17.7944 19.7375C18.3508 20.1949 18.8226 21.0634 18.8226 22.424C18.8226 24.3751 18.8044 26.7895 18.8044 27.2643C18.8044 27.6406 19.0827 28.098 19.8508 27.9648C25.8992 26.0426 30 20.5481 30 14.1272C30 6.09668 23.1956 0 14.8065 0ZM5.87903 19.9691C5.8004 20.027 5.81855 20.1602 5.92137 20.2702C6.01815 20.3628 6.15726 20.4033 6.23589 20.3281C6.31452 20.2702 6.29637 20.137 6.19355 20.027C6.09677 19.9343 5.95766 19.8938 5.87903 19.9691ZM5.22581 19.5001C5.18347 19.5754 5.24395 19.668 5.36492 19.7259C5.46169 19.7838 5.58266 19.7664 5.625 19.6854C5.66734 19.6101 5.60685 19.5175 5.48589 19.4596C5.36492 19.4248 5.26815 19.4422 5.22581 19.5001ZM7.18548 21.5613C7.08871 21.6366 7.125 21.8103 7.26411 21.9203C7.40323 22.0534 7.57863 22.0708 7.65726 21.9782C7.73589 21.9029 7.6996 21.7292 7.57863 21.6192C7.44556 21.486 7.26411 21.4687 7.18548 21.5613ZM6.49597 20.7102C6.39919 20.7681 6.39919 20.9186 6.49597 21.0518C6.59274 21.1849 6.75605 21.2428 6.83468 21.1849C6.93145 21.1097 6.93145 20.9591 6.83468 20.826C6.75 20.6928 6.59274 20.6349 6.49597 20.7102Z" fill="black"/>
</svg>
